<?xml version="1.0" encoding="UTF-8" standalone="no"?>
<svg
   class="icon icon-tabler icon-tabler-mood-smile"
   width="24"
   height="24"
   viewBox="0 0 24 24"
   stroke-width="2"
   stroke="currentColor"
   fill="none"
   stroke-linecap="round"
   stroke-linejoin="round"
   version="1.1"
   id="svg142"
   sodipodi:docname="blue-icon.svg"
   inkscape:version="1.2 (dc2aeda, 2022-05-15)"
   inkscape:export-filename="blue-icon.png"
   inkscape:export-xdpi="512"
   inkscape:export-ydpi="512"
   xmlns:inkscape="http://www.inkscape.org/namespaces/inkscape"
   xmlns:sodipodi="http://sodipodi.sourceforge.net/DTD/sodipodi-0.dtd"
   xmlns:xlink="http://www.w3.org/1999/xlink"
   xmlns="http://www.w3.org/2000/svg"
   xmlns:svg="http://www.w3.org/2000/svg">
  <defs
     id="defs146">
    <linearGradient
       inkscape:collect="always"
       id="linearGradient34729">
      <stop
         style="stop-color:#0055ac;stop-opacity:1;"
         offset="0"
         id="stop34725" />
      <stop
         style="stop-color:#0087bd;stop-opacity:1;"
         offset="0.5"
         id="stop34802" />
      <stop
         style="stop-color:#0055ac;stop-opacity:1;"
         offset="1"
         id="stop34727" />
    </linearGradient>
    <inkscape:path-effect
       effect="powerstroke"
       id="path-effect6495"
       is_visible="true"
       lpeversion="1"
       offset_points="1,0"
       not_jump="false"
       sort_points="true"
       interpolator_type="CubicBezierJohan"
       interpolator_beta="0.2"
       start_linecap_type="zerowidth"
       linejoin_type="extrp_arc"
       miter_limit="4"
       scale_width="1"
       end_linecap_type="zerowidth" />
    <inkscape:path-effect
       effect="powerstroke"
       id="path-effect6403"
       is_visible="true"
       lpeversion="1"
       offset_points="1,0"
       not_jump="false"
       sort_points="true"
       interpolator_type="CubicBezierJohan"
       interpolator_beta="0.2"
       start_linecap_type="zerowidth"
       linejoin_type="extrp_arc"
       miter_limit="4"
       scale_width="1"
       end_linecap_type="zerowidth" />
    <inkscape:path-effect
       effect="powerstroke"
       id="path-effect6371"
       is_visible="true"
       lpeversion="1"
       offset_points="1,0"
       not_jump="false"
       sort_points="true"
       interpolator_type="CubicBezierJohan"
       interpolator_beta="0.2"
       start_linecap_type="zerowidth"
       linejoin_type="extrp_arc"
       miter_limit="4"
       scale_width="1"
       end_linecap_type="zerowidth" />
    <inkscape:path-effect
       effect="powerstroke"
       id="path-effect4158"
       is_visible="true"
       lpeversion="1"
       offset_points="0,0"
       not_jump="false"
       sort_points="true"
       interpolator_type="CubicBezierJohan"
       interpolator_beta="0.2"
       start_linecap_type="zerowidth"
       linejoin_type="extrp_arc"
       miter_limit="4"
       scale_width="1"
       end_linecap_type="zerowidth" />
    <inkscape:path-effect
       effect="powerstroke"
       id="path-effect2600"
       is_visible="true"
       lpeversion="1"
       offset_points="29,0"
       not_jump="false"
       sort_points="true"
       interpolator_type="CubicBezierJohan"
       interpolator_beta="0.2"
       start_linecap_type="zerowidth"
       linejoin_type="extrp_arc"
       miter_limit="4"
       scale_width="1"
       end_linecap_type="zerowidth" />
    <inkscape:path-effect
       effect="spiro"
       id="path-effect2598"
       is_visible="true"
       lpeversion="1" />
    <inkscape:path-effect
       effect="powerstroke"
       id="path-effect2594"
       is_visible="true"
       lpeversion="1"
       offset_points="2.117647,0"
       not_jump="false"
       sort_points="true"
       interpolator_type="CubicBezierJohan"
       interpolator_beta="0.2"
       start_linecap_type="zerowidth"
       linejoin_type="extrp_arc"
       miter_limit="4"
       scale_width="1"
       end_linecap_type="zerowidth" />
    <inkscape:path-effect
       effect="spiro"
       id="path-effect2592"
       is_visible="true"
       lpeversion="1" />
    <linearGradient
       id="linearGradient1020"
       inkscape:swatch="solid">
      <stop
         style="stop-color:#ef9500;stop-opacity:1;"
         offset="0"
         id="stop1018" />
    </linearGradient>
    <linearGradient
       inkscape:collect="always"
       xlink:href="#linearGradient34729"
       id="linearGradient34731"
       x1="2"
       y1="2"
       x2="22"
       y2="22"
       gradientUnits="userSpaceOnUse" />
    <filter
       style="color-interpolation-filters:sRGB;"
       inkscape:label="Drop Shadow"
       id="filter48161"
       x="-0.059997072"
       y="-0.059995907"
       width="1.1199941"
       height="1.1199918">
      <feFlood
         flood-opacity="1"
         flood-color="rgb(0,85,172)"
         result="flood"
         id="feFlood48151" />
      <feComposite
         in="flood"
         in2="SourceGraphic"
         operator="out"
         result="composite1"
         id="feComposite48153" />
      <feGaussianBlur
         in="composite1"
         stdDeviation="0.5"
         result="blur"
         id="feGaussianBlur48155" />
      <feOffset
         dx="2.77556e-17"
         dy="0"
         result="offset"
         id="feOffset48157" />
      <feComposite
         in="offset"
         in2="SourceGraphic"
         operator="atop"
         result="composite2"
         id="feComposite48159" />
    </filter>
  </defs>
  <sodipodi:namedview
     id="namedview144"
     pagecolor="#505050"
     bordercolor="#eeeeee"
     borderopacity="1"
     inkscape:showpageshadow="0"
     inkscape:pageopacity="0"
     inkscape:pagecheckerboard="0"
     inkscape:deskcolor="#505050"
     showgrid="false"
     inkscape:zoom="2.4583333"
     inkscape:cx="0.61016951"
     inkscape:cy="17.288136"
     inkscape:window-width="1121"
     inkscape:window-height="745"
     inkscape:window-x="0"
     inkscape:window-y="35"
     inkscape:window-maximized="0"
     inkscape:current-layer="svg142"
     showguides="false">
    <inkscape:grid
       type="xygrid"
       id="grid363" />
  </sodipodi:namedview>
  <path
     id="path344"
     style="color:#000000;fill:url(#linearGradient34731);fill-opacity:1;stroke:none;stroke-linejoin:round;-inkscape-stroke:none;filter:url(#filter48161)"
     d="m 11,6 v 2 h 2 V 6 Z m 1,0 V 8 Z M 12,2 C 10.631134,2 9.5,3.1311341 9.5,4.5 9.5,5.8688659 10.631134,7 12,7 13.368866,7 14.5,5.8688659 14.5,4.5 14.5,3.1311341 13.368866,2 12,2 Z m 0,2 c 0.287987,0 0.5,0.2120133 0.5,0.5 C 12.5,4.7879867 12.287987,5 12,5 11.712013,5 11.5,4.7879867 11.5,4.5 11.5,4.2120133 11.712013,4 12,4 Z m 6.500361,11.998967 c -5.4e-4,0.552262 0.446661,1.000439 0.998922,1.001105 0.891438,9.84e-4 1.719128,-0.47604 2.165408,-1.247609 0.446279,-0.771569 0.447308,-1.727445 0.0027,-2.499998 -0.444617,-0.772554 -1.271278,-1.251406 -2.162716,-1.252391 -0.552262,-5.55e-4 -1.000426,0.446633 -1.001076,0.998895 l -0.0016,1.499999 z M 5.4999958,12.999702 c 1.11e-4,-0.552262 -0.4474372,-1.00008 -0.9996991,-1.000301 -0.891582,-2.68e-4 -1.7203191,0.47736 -2.1663915,1.249349 -0.4460724,0.771989 -0.4463599,1.727742 -7.521e-4,2.5 0.4456079,0.772257 1.2740574,1.250383 2.1656395,1.250651 0.5522618,1.11e-4 1.0000793,-0.447437 1.0003007,-0.999699 l 4.513e-4,-1.5 z m 3.9472698,4.105767 C 9.1374893,16.950356 8.7695011,16.966612 8.4746094,17.148437 8.1793992,17.330744 7.999774,17.653035 8,18 v 3 c -2.257e-4,0.346965 0.1793995,0.669255 0.4746094,0.851562 0.2948914,0.181825 0.6628796,0.198082 0.9726562,0.04297 L 12,20.617187 14.552734,21.894531 C 15.217684,22.226934 15.999988,21.743404 16,21 v -3 c 2.26e-4,-0.346965 -0.179399,-0.669256 -0.474609,-0.851563 -0.294892,-0.181826 -0.66288,-0.198083 -0.972657,-0.04297 L 12,18.382812 Z M 15,12 c -0.552285,0 -1,0.447715 -1,1 0,0.552285 0.447715,1 1,1 h 0.0098 c 0.552285,0 1,-0.447715 1,-1 0,-0.552285 -0.447715,-1 -1,-1 z m -6,0 c -0.5522847,0 -1,0.447715 -1,1 0,0.552285 0.4477153,1 1,1 h 0.00977 c 0.5522832,-2e-6 0.999996,-0.447717 0.999996,-1 0,-0.552285 -0.4477155,-1 -1.0000004,-1 z M 8,8 C 5.8012989,8 4,9.8012989 4,12 V 15.254238 16 c 0,2.198701 1.8012989,4 4,4 h 8 c 2.198701,0 4,-1.801299 4,-4 V 12 C 20,9.8012989 18.198701,8 16,8 Z m 0,2 h 8 c 1.125297,0 2,0.874703 2,2 v 4 c 0,1.125297 -0.874703,2 -2,2 H 8 C 6.8747034,18 6,17.125297 6,16 v -4 c 0,-1.125297 0.8747034,-2 2,-2 z"
     sodipodi:nodetypes="ccccccccssssssssssccscccccccssccccccccccccccccccsssssssssssssssscssssssssssssssss" />
</svg>
