<?xml version="1.0" encoding="UTF-8"?>
<svg class="icon icon-tabler icon-tabler-note" fill="currentColor" stroke-linecap="round" stroke-linejoin="round" stroke-width="2" version="1.1" viewBox="0 0 24 24" xmlns="http://www.w3.org/2000/svg">
<path d="m6.5 3c-1.6454 0-3.002 1.355-3.002 3v12c-1e-7 1.645 1.3566 3 3.002 3h10.002c0.0098 1.43e-4 0.019527 1.43e-4 0.029297 0 0.11367-0.0031 0.22591-0.025556 0.33203-0.066406 0.01848-0.0079 0.036718-0.016381 0.054688-0.025391 0.10777-0.04747 0.20625-0.11358 0.29102-0.19531l4-4c0.09174-0.09182 0.16468-0.20061 0.21484-0.32031 0.0479-0.11724 0.073079-0.2425 0.074219-0.36914v-10.023c0.003899-1.645-1.3506-3-2.9961-3h-12.002zm0 2h12.002c0.56424 0 1 0.43588 1 1v9h-2c-1.093 0-2.002 0.90728-2.002 2v2h-9c-0.56424 0-1.002-0.43588-1.002-1v-12c0-0.56412 0.43771-1 1.002-1zm2.9941 2.9785c-0.5524 0-1 0.44772-1 1 0 0.55228 0.4476 1 1 1h0.011719c0.5524-3e-7 1-0.44772 1-1 0-0.55228-0.4476-1-1-1h-0.011719zm6 0c-0.5524 3e-7 -1 0.44772-1 1 0 0.55228 0.4476 1 1 1h0.013671c0.5524 3e-7 1-0.44772 1-1 0-0.55228-0.4476-1-1-1h-0.013671zm-5.4883 5c-0.26549-0.0031-0.52116 0.09951-0.71094 0.28516-0.39431 0.38672-0.40043 1.0198-0.013672 1.4141 1.756 1.7919 4.6737 1.7919 6.4297 0 0.38676-0.39427 0.38064-1.0273-0.013672-1.4141-0.39436-0.38667-1.0292-0.38055-1.416 0.013672-0.98931 1-2.583 1-3.5723 0-0.18563-0.18874-0.43838-0.29621-0.70312-0.29883zm7.4961 4.0215h0.58594l-0.58594 0.58594v-0.58594z" stroke="none" />
</svg>
